# xmcd
#
# Track frame offsets: 
#        150
#        13296
#        25356
#        41430
#        54525
#        64434
#        81917
#        92571
#        107992
#        118908
#        131687
#        143139
#        157651
#        167779
#        176599
#        187561
#        196511
#        207990
#        217981
#        229508
#        239664
#        250999
#        260504
#        277198
#        289069
#        301407
#        310756
#        320556
#
# Disc length: 4433 seconds
#
# Revision: 0
# Processed by: cddbd v1.5.2PL0 Copyright (c) Steve Scherf et al.
# Submitted via: ExactAudioCopyFreeDBPlugin 1.0
#
DISCID=97114f1c
DTITLE=Mar-Keys - The Memphis Soul Sound Of Booker T. and The MG's
DYEAR=2013
DGENRE=Soul
TTITLE0=Green Onions
TTITLE1=Rinky-Dink
TTITLE2=I Got A  Woman
TTITLE3=Mo' Onions
TTITLE4=Twist And SHout
TTITLE5=Behave Yourself
TTITLE6=Stranger On The Shore
TTITLE7=Lonely Avenue
TTITLE8=One Who Really Loves You
TTITLE9=You Can't Sit Down
TTITLE10=A Woman, A Lover, A Friend
TTITLE11=Comin' Home Baby 
TTITLE12=Morning After
TTITLE13=Diana
TTITLE14=Alright, Okay, You WIn
TTITLE15=Sticks And Stones
TTITLE16=Misty
TTITLE17=Night Before
TTITLE18=About Noon
TTITLE19=One Degree North
TTITLE20=Sack O' Woe
TTITLE21=Hold It
TTITLE22=Ebb Tide
TTITLE23=Last Night
TTITLE24=Pop-Eye-Stroll
TTITLE25=Straight From The Can
TTITLE26=Sit STill
TTITLE27='Cause I Love Him'
EXTD=
EXTT0=
EXTT1=
EXTT2=
EXTT3=
EXTT4=
EXTT5=
EXTT6=
EXTT7=
EXTT8=
EXTT9=
EXTT10=
EXTT11=
EXTT12=
EXTT13=
EXTT14=
EXTT15=
EXTT16=
EXTT17=
EXTT18=
EXTT19=
EXTT20=
EXTT21=
EXTT22=
EXTT23=
EXTT24=
EXTT25=
EXTT26=
EXTT27=
PLAYORDER=
